<svg xmlns="http://www.w3.org/2000/svg" width="120" height="720" viewBox="0 0 120 720" fill="none">
  <defs>
    <symbol id="vp-leaf" viewBox="0 0 226 248">
      <path d="M0 0 C1.5625 1.5742187500000007 1.5625 1.5742187500000007 3 3.6875 C3.5078906250000017 4.4158203125 4.015781250000003 5.144140625 4.5390625 5.89453125 C5.021171874999993 6.5893359375 5.503281250000001 7.284140625 6 8 C6.391874999999999 8.474375 6.391874999999999 8.474375 8.375 10.875 C10 13.000000000000002 10 13.000000000000002 10 15 C10.742500000000007 14.67 11.485 14.34 12.25 14 C16.867698252302674 14 17.498777399942426 18.08504694494789 19 22 C19.164999999999992 22.494999999999997 19.164999999999992 22.494999999999997 20 25 C20.659999999999997 25.268125 21.319999999999993 25.53625 22 25.8125 C26.481589557608046 28.473443799829774 25.183025268224796 36.23888539118312 25.1875 41 C25.199746093749994 41.68578125 25.2119921875 42.3715625 25.224609375 43.078125 C25.237188046784652 47.47227434343727 24.493547252789327 50.895639526249504 23 55 C22.628594806559036 57.84100855761989 22.754459348391407 60.102620311018654 23 63 C26 64 26 64 28 62 C28.271240234375 59.25024414062496 28.271240234375 59.25024414062496 28.30859375 55.78515625 C28.333730468750005 54.54185546875 28.358867187499996 53.2985546875 28.384765625 52.017578125 C28.41986914420464 49.38481418465219 28.451130797690666 46.75199616488241 28.478515625 44.119140625 C28.504941406249998 42.87455078125 28.531367187499995 41.6299609375 28.55859375 40.34765625 C28.572048339843747 39.20304931640625 28.585502929687493 38.0584423828125 28.599365234375 36.879150390625 C29.03292964294407 33.7633520540893 29.44009188017381 32.768030688291994 32 31 C32.66 31 33.31999999999999 31 34 31 C35.07830343446196 29.083667265929012 36.06372378164005 27.1145869640149 37 25.125 C40.73418559978805 17.2271974564483 40.73418559978805 17.2271974564483 44.4375 16.5625 C48.034044943139406 17.17654425858478 48.49419467715137 18.82988353084498 50 22 C54.026403181185515 20.61951890930783 56.73268951621537 18.695531149122303 60 16 C63.42082974935687 13.605419175450193 65.76942745280229 12.294904575467045 70 13 C70.33000000000001 13.99 70.66 14.98 71 16 C74.24674926459372 14.995053799054325 77.1263169660829 13.93178883831524 80.125 12.3125 C84.2302818664102 10.438349582725786 85.86426188057087 10.864261880570872 89 14 C94.74629194051408 13.657958813064639 99.82434844250236 12.278714454397964 105.25 10.4375 C109.28792882442818 9.07526193004886 112.67091831467152 8 117 8 C116.96970703125001 8.77190673828125 116.93941406249999 9.5438134765625 116.908203125 10.339111328125 C116.77153405284199 13.830217646346028 116.63575643834602 17.321358078750148 116.5 20.8125 C116.4523046875 22.02744140625 116.404609375 23.2423828125 116.35546875 24.494140625 C116.31035156249999 25.65751953125 116.265234375 26.8208984375 116.21875 28.01953125 C116.17685546875 29.09307861328125 116.13496093750001 30.1666259765625 116.091796875 31.272705078125 C116.02756745566086 33.18096795960814 116 35.090656488958835 116 37 C116.66 37 117.32 37 118 37 C119.40027920140179 42.461088885467014 118.42705634052575 46.69276567573064 117 52 C117.639375 52.0825 118.27875 52.165 118.9375 52.25 C121.75726364930597 53.27536859974762 121.81447074021654 54.07791415841028 122 57 C121.32812499999997 59.18359375000003 121.32812499999997 59.18359375000003 120.25 61.4375 C119.87875 62.22125 119.5075 63.005 119.125 63.8125 C117.85734392635072 66.27738680987356 116.4361370592213 68.63037385228485 115 71 C115 73 115 73 117.5625 74.25 C120 76.00000000000001 120 76.00000000000001 120.125 78.875 C118.30237002569183 83.93786103974489 114.43364665367395 87.09519702000674 110 90 C109.34 90 108.68 90 108 90 C107.93812500000001 90.4846875 107.93812500000001 90.4846875 107.625 92.9375 C105.17855317237346 97.54811132898851 102.29944771881947 96.68955062386934 97.37890625 96.8671875 C94.04477063704846 96.9982402292952 90.85788077098263 97.36047958222576 87.5625 97.875 C86.61503906249999 98.016796875 85.667578125 98.15859375 84.69140625 98.3046875 C81.62950802972534 99.09571490668925 79.49634852339801 100.05185142457142 77 102 C77 103.32 77 104.64 77 106 C83.25802723001632 105.64577204358397 87.86768102324663 103.91645389714738 93.484375 101.15625 C100.44742358115823 97.95584257760429 108.2381323888618 97.2381323888618 114 103 C115.43434586159083 103.1571088773345 116.87297244054102 103.27604720540543 118.3125 103.375 C121.99840453337129 103.74476430828406 124.39080125538527 104.16391440802747 127 107 C127 107.66 127 108.32 127 109 C128.98982812979966 109.69643984542988 130.99294756587025 110.35487600331544 133 111 C143 115.48148148148148 143 115.48148148148148 143 121 C142.34 121 141.68 121 141 121 C140.724140625 121.5775 140.44828125 122.155 140.1640625 122.75 C138.28498519518456 126.3820420388379 135.03962292652048 128.46326981328315 131.8984375 131 C130 133 130 133 130 137 C129.01 137.33 128.02 137.66 127 138 C124.55882735729247 140.07129799987305 123.1707766366583 141.5623848685631 122 144.5625 C120.4916683682572 148.23905835237306 118.58907090347444 149.6324597910331 114.703125 150.53125 C110.15439465461077 151.6048633734459 110.15439465461077 151.6048633734459 108 153 C107.82435732620229 155.4682417844205 108.31156808727548 157.4957477167533 108.83984375 159.90625 C109 162 109 162 106.375 164 C105.26124999999999 164.33 104.14750000000001 164.66 103 165 C102.236875 165.226875 101.47375 165.45375 100.6875 165.6875 C97.4028981396931 166.0694304488729 94.19331180162814 166.0249883920961 90.890625 165.9375 C89 166 89 166 88 167 C80.19201608756538 167 75.2534992482696 163.37441869870878 69 159 C66 157 66 157 64 157 C64 160.66061937449976 64.99483402475647 161.09275233167295 67.49609375 163.515625 C73.9174589521287 169.8535958488543 75.76432969027297 174.86026842475806 76.67578125 183.92578125 C77 187.00000000000003 77 187.00000000000003 78 190 C76.14358643041066 193.71282713917864 70.23079489908383 192.13097660897918 66.50390625 191.734375 C64.92935918625213 191.54291007704825 63.35621082470499 191.3393706291614 61.78515625 191.12109375 C60 191 60 191 59 192 C54.666884846434755 191.58335431215718 50.96463740801778 190.80210791273535 47 189 C46.34 190.32 45.68000000000001 191.64 45 193 C40.1097677492981 191.83565898792813 37.68670902530519 190.0306892411012 34.4921875 186.33984375 C32.71821394556717 184.74698267887314 31.322163926619695 184.40363793574292 29 184 C28.67 184.99 28.340000000000003 185.98 28 187 C28 186.01 28 185.02 28 184 C26.27734375000007 183.26171875000003 26.27734375000007 183.26171875000003 23.9375 182.6875 C19.071822250343615 181.23241598942238 15.230461869680283 178.98873748539302 12 175 C12 174.01 12 173.02 12 172 C11.010000000000005 172.33 10.019999999999996 172.66 9 173 C2.8522690082997997 162.15540253064086 9.88103016597779 148.50337307675665 14 138 C-13.4088699338961 162.68067223214254 -23.28694391903972 207.78672669783663 -13 242 C-11.680000000000007 241.67 -10.36 241.34 -9 241 C-8.514925373134332 245.6082089552239 -8.514925373134332 245.6082089552239 -10.625 247.3125 C-17.893573787147574 249.41656083312165 -17.893573787147574 249.41656083312165 -20.546875 246.01953125 C-30.94427824810205 224.41417450058364 -27.28524558156103 196.8042509101844 -20 175 C-19.765068359375 174.291982421875 -19.53013671875 173.58396484375 -19.2880859375 172.8544921875 C-15.09098033627454 160.6175161769402 -8.925684714869703 145.53860727039722 0 136 C0.6599999999999966 136 1.3199999999999932 136 2 136 C3.340926149473489 133.71253774501582 4.158591034574201 131.52422689627738 5 129 C-0.9432228238228788 130.5233114810575 -5.305470309373533 131.92317158445596 -10 136 C-15.928185441397758 140.0207368850221 -24.21742904501312 142.39128547749343 -31 139 C-31 138.34 -31 137.68 -31 137 C-33.1953124999999 136.28906250000003 -33.1953124999999 136.28906250000003 -36.125 135.625 C-40.86968916507075 134.3989821278887 -44.409668268491615 133.3908688575357 -48 130 C-48 126.4431489777954 -46.98861219498066 124.982918292471 -45 122 C-45.794062499999995 121.3361328125 -46.588125 120.672265625 -47.40625 119.98828125 C-48.438144377014254 119.0970997425786 -49.4693593001855 118.20513107293516 -50.5 117.3125 C-50.762324218749995 117.094970703125 -50.762324218749995 117.094970703125 -52.08984375 115.994140625 C-55.312831322937065 113.16879437599673 -57.04023561109197 111.36745980833469 -56 107 C-55.504999999999995 106.83500000000001 -55.504999999999995 106.83500000000001 -53 106 C-53.21076171875 105.7692578125 -53.21076171875 105.7692578125 -54.27734375 104.6015625 C-58.190425096885605 99.94269388464915 -59.60728366833629 96.66546284319597 -59.8515625 90.60546875 C-60.05969319867742 86.95222727584623 -60.88441235758909 83.49377862181775 -61.6953125 79.93359375 C-62 78 -62 78 -61 77 C-48.386317343021936 76.2274305086421 -40.55896757047338 77.39480433540513 -30.12109375 84.703125 C-27.465040009438603 86.3270841931241 -25.094849222440175 86.8412897834646 -22 87 C-24.061786659514823 82.16833833325819 -26.251457042768195 79.63527233703115 -30.4375 76.5 C-37.797564203075524 70.66841473856846 -40.45297208221817 67.5124137265816 -40 58 C-40.325505019911986 56.33178677295108 -40.65846063000758 54.66500442871305 -41 53 C-41.127829737332405 49.29293761736022 -41.17554078726222 46.52662236178666 -40 43 C-38.8720703125 43.100546875 -37.744140625 43.20109375 -36.58203125 43.3046875 C-33 43 -33 43 -31.51171875 39.5703125 C-31.203608784027466 38.095119329586055 -30.93030465250341 36.61233740015177 -30.6875 35.125 C-29.169156883671285 27.169156883671285 -29.169156883671285 27.169156883671285 -27 25 C-26.009999999999998 25.0825 -25.020000000000003 25.165 -24 25.25 C-21 25 -21 25 -19.8125 22.25 C-19.544375000000002 21.1775 -19.276249999999997 20.105 -19 19 C-16.68421052631578 15 -16.68421052631578 15 -12 15 C-11.0625 13.062500000000005 -11.0625 13.062500000000005 -10 10 C-9.170605392088333 8.40355090176481 -8.314380093487472 6.820868053190426 -7.4375 5.25 C-7.003085937500003 4.47140625 -6.568671875000007 3.6928124999999996 -6.12109375 2.890625 C-4.40702479338843 0 -4.40702479338843 0 0 0 Z M37 95 C37 95.99 37 96.98 37 98 C36.34 98 35.68000000000001 98 35 98 C33.2734375 99.89843749999999 33.2734375 99.89843749999999 31.375 102.375 C30.743359374999997 103.187109375 30.111718749999994 103.99921875 29.4609375 104.8359375 C28 107 28 107 28 109 C31.41860752212105 107.56177524950414 33.27907837692304 105.78464276280927 35.625 102.9375 C38.80555555555556 99.09722222222223 38.80555555555556 99.09722222222223 41 98 C41 97.34 41 96.68 41 96 C44 94.875 44 94.875 47 94 C46.875 91.5 46.875 91.5 46 89 C40.23068608279087 87.62038145458042 38.84380015336083 89.77589956547764 37 95 Z M22 115 C22 115.66 22 116.32 22 117 C22.659999999999997 116.67 23.319999999999993 116.34 24 116 C23.340000000000003 115.67 22.680000000000007 115.34 22 115 Z M20 117 C20 117.66 20 118.32 20 119 C20.659999999999997 118.67 21.319999999999993 118.34 22 118 C21.340000000000003 117.67 20.680000000000007 117.34 20 117 Z " fill="currentColor" transform="translate(83,0)"/>
    </symbol>
  </defs>

  <g color="#B8924A">
    <!-- Main vine stem - long sinuous curve, seamless top-to-bottom tile -->
    <path d="M 30 0 C 55 60 5 130 32 190 C 60 250 8 320 30 380 C 55 440 4 510 32 570 C 58 630 8 690 30 720"
      stroke="currentColor" stroke-width="1.2" fill="none" stroke-linecap="round"/>

    <!-- Tendrils -->
    <path d="M 32 95 C 20 105 8 115 22 126 C 32 130 38 122 32 116" stroke="currentColor" stroke-width="0.9" fill="none" stroke-linecap="round"/>
    <path d="M 35 250 C 56 265 72 258 60 244 C 50 234 44 240 49 247" stroke="currentColor" stroke-width="0.9" fill="none" stroke-linecap="round"/>
    <path d="M 28 410 C 12 425 2 442 18 452 C 30 454 36 446 30 440" stroke="currentColor" stroke-width="0.9" fill="none" stroke-linecap="round"/>
    <path d="M 35 570 C 56 585 72 578 60 564 C 50 554 44 560 49 567" stroke="currentColor" stroke-width="0.9" fill="none" stroke-linecap="round"/>

    <!-- Leaves at irregular intervals, varied rotation/size -->
    <use href="#vp-leaf" x="40" y="40" width="32" height="32" transform="rotate(20 56 56)"/>
    <use href="#vp-leaf" x="-4" y="180" width="36" height="36" transform="rotate(-30 14 198)"/>
    <use href="#vp-leaf" x="44" y="320" width="30" height="30" transform="rotate(35 59 335)"/>
    <use href="#vp-leaf" x="-2" y="470" width="34" height="34" transform="rotate(-22 15 487)"/>
    <use href="#vp-leaf" x="42" y="600" width="32" height="32" transform="rotate(18 58 616)"/>

    <!-- Small grape cluster motifs (3 dots in triangle) -->
    <g fill="currentColor">
      <circle cx="16" cy="135" r="2.2"/>
      <circle cx="22" cy="140" r="2.2"/>
      <circle cx="19" cy="145" r="2.2"/>
    </g>
    <g fill="currentColor">
      <circle cx="74" cy="295" r="2.2"/>
      <circle cx="80" cy="300" r="2.2"/>
      <circle cx="77" cy="305" r="2.2"/>
    </g>
    <g fill="currentColor">
      <circle cx="14" cy="455" r="2.2"/>
      <circle cx="20" cy="460" r="2.2"/>
      <circle cx="17" cy="465" r="2.2"/>
    </g>
  </g>
</svg>
