<svg xmlns="http://www.w3.org/2000/svg" width="120" height="720" viewBox="0 0 120 720" fill="none">
  <defs>
    <symbol id="vp-leaf" viewBox="0 0 308 312">
      <path d="M0 0 C1.87890625 1.5039062500000036 1.87890625 1.5039062500000036 3.5625 3.5625 C3.8602734374999983 3.92537109375 3.8602734374999983 3.92537109375 5.3671875 5.76171875 C6.818241017418231 7.750842351628343 8.028553743605926 9.707679244932336 9.1875 11.875 C11.483200856298282 15.833104924652213 12.956453339719815 16.948911333492994 17.5 17.0625 C22.368599474323304 18.888224802871235 23.425399564372924 25.237891997410237 24.9375 29.875 C26 32 26 32 28.5625 33.375 C32.04998177470628 35.699987849804195 31.910553284587934 38.09186658814918 32 42 C32.0270703125 42.9384375 32.054140625 43.876875 32.08203125 44.84375 C32.27249015748032 58.556791338582705 32.27249015748032 58.556791338582705 29.9375 64.875 C28.550601037008335 69.4979965433056 27.777386321974575 75.55477264394912 30 80 C34.73684210526315 79.52631578947368 34.73684210526315 79.52631578947368 36 77 C36.120368389001726 74.41096166380953 36.18558095430518 71.8441385981799 36.2109375 69.25390625 C36.23900108993678 67.67902597537865 36.26766552011867 66.1041563134124 36.296875 64.529296875 C36.338179893374814 62.042889811312094 36.37506154827727 59.556681978123414 36.4013671875 57.070068359375 C36.428937989914516 54.67259694596624 36.47480179392329 52.276030360590525 36.5234375 49.87890625 C36.52669036865234 49.135081939697265 36.52994323730468 48.39125762939453 36.533294677734375 47.62489318847656 C36.692930523064945 40.93702465672878 36.692930523064945 40.93702465672878 40 39 C41.31999999999999 39 42.639999999999986 39 44 39 C44.94140625 37.20703125 44.94140625 37.20703125 45.5625 34.8125 C46.63008215503433 31.13078424371944 47.813235741150606 28.18903121082204 50 25 C50.43312500000002 24.236875 50.86624999999998 23.47375 51.3125 22.6875 C53.88931301102036 20.110686988979626 55.50958794474181 20.28767100913098 59 21 C63 25.84210526315792 63 25.84210526315792 63 29 C63.99000000000001 29 64.97999999999999 29 66 29 C66 28.34 66 27.68 66 27 C67.60937500000003 25.527343749999975 67.60937500000003 25.527343749999975 69.75 23.9375 C70.44609374999999 23.4102734375 71.1421875 22.883046875 71.859375 22.33984375 C74 20.999999999999996 74 20.999999999999996 76.203125 20.50390625 C78 19.999999999999996 78 19.999999999999996 79 17 C80.99609374999997 16.347656250000004 80.99609374999997 16.347656250000004 83.4375 16.0625 C84.24058593749999 15.9503515625 85.043671875 15.838203125 85.87109375 15.72265625 C88.86469273509215 16.112648044388152 88.8541334947814 17.367053408008786 90 20 C92.625 20.25 92.625 20.25 95 20 C95 19.34 95 18.68 95 18 C97.23046875 16.605468749999993 97.23046875 16.605468749999993 100.1875 15.1875 C101.15042968750001 14.7066796875 102.11335937499999 14.225859375 103.10546875 13.73046875 C107.11958380542131 12.717459957336324 109.14740681316943 14.147406813169427 112 17 C118.7633778489587 16.78528959209655 124.94694306473502 15.35250681529724 131.4375 13.5625 C132.23083740234375 13.3451318359375 133.0241748046875 13.127763671875 133.841552734375 12.90380859375 C137.38396646681804 11.893858357511023 139.8893511782515 11.073765881165674 143 9 C145.6875 8.875 145.6875 8.875 148 9 C148.1962800926077 14.637600437677284 148.1354933987528 19.958472356790868 147 25.5 C145.22702188067487 34.40315631143127 144.19710700555117 42.19710700555116 151 49 C150.79296875000003 51.1718749999999 150.79296875000003 51.1718749999999 150.1875 53.75 C149.994140625 54.64203125 149.80078125 55.5340625 149.6015625 56.453125 C149.12345606325562 58.477315888034674 148.60064210516697 60.49093614070994 148.0625 62.5 C148 65 148 65 150.375 66.125 C151.24125000000004 66.41375 152.10749999999996 66.7025 153 67 C155.65795462495487 73.41284290465295 150.94754857155542 81.0337292164303 147 86 C146.34 86 145.68 86 145 86 C144.25298013245035 91.60264900662251 144.25298013245035 91.60264900662251 147.9375 93.5625 C148.948125 94.036875 149.95875 94.51125 151 95 C153.5631862873268 99.48557600282192 150.81996213998377 102.44589620465727 147.95703125 106.01953125 C145.2950074308823 108.71343559389756 142.34911656823232 110.54850512094852 139.05078125 112.3828125 C137 114 137 114 135.703125 117.09765625 C133.3374088236744 121.12914046791265 130.76807402700797 121.05632097833774 126.4375 121.3125 C125.71949218750001 121.37896728515625 125.00148437499999 121.4454345703125 124.26171875 121.513916015625 C122.1755622554731 121.70316155194281 120.08979868655354 121.85738360146559 118 122 C111.36977661685586 122.50137282427949 106.18435500487155 123.50455850680622 100 126 C99.00999999999999 126 98.02000000000001 126 97 126 C97 128.31 97 130.62 97 133 C107.20446880269816 132.42537942664418 107.20446880269816 132.42537942664418 112 129 C113.64034193066095 128.27095914192847 115.31301917661787 127.61344757213895 117 127 C117.64839843749999 126.739609375 118.29679687500001 126.47921875 118.96484375 126.2109375 C125.51129123653996 123.74882895497443 133.259497912327 122.38718681962365 140 125 C140.2281640625 125.33580078125 140.2281640625 125.33580078125 141.3828125 127.03515625 C143.68772308255663 129.83556693363766 145.3344142312917 129.4330853045278 148.875 129.4375 C154.52185201941182 129.71095530360347 156.79914674152178 130.31303630008549 160 135 C160 135.66 160 136.32 160 137 C161.98246698634273 137.71712557652458 163.98716085475945 138.3731642800289 166 139 C168.0814814457068 139.916375479242 170.1446029301248 140.87555986188613 172.1875 141.875 C173.21230468750002 142.367421875 174.237109375 142.85984375 175.29296875 143.3671875 C178.02548610324175 145.01537257020928 179.49015910137223 146.19993142436303 181 149 C180.67000000000002 149.99 180.33999999999997 150.98 180 152 C179.33999999999997 152 178.68 152 178 152 C177.88527343750002 152.58265625 177.77054687500004 153.1653125 177.65234375 153.765625 C176.74859471160698 156.8611007482684 175.11516626012406 157.83856350441914 172.5625 159.75 C171.7594140625 160.36359375 170.95632812500003 160.9771875 170.12890625 161.609375 C168 163 168 163 166 163 C163.98709251675166 165.96638997531335 163.80210998073278 167.6459079460518 165 171 C164.195625 171.268125 163.39125 171.53625 162.5625 171.8125 C160 173 160 173 159 176 C158.175 176.2475 157.35000000000002 176.495 156.5 176.75 C154 178 154 178 153.5625 181.375 C152.4737385947011 188.39146238970406 144.13677327626658 190.69257324812378 138 193 C137.34 193 136.68 193 136 193 C136.19078125 193.60328125 136.3815625 194.2065625 136.578125 194.828125 C138.36843207033704 201.28155746284276 138.36843207033704 201.28155746284276 136.75 204.4375 C130.0307252730004 208.25526973124977 121.92970983423334 208.28209454537907 114.37109375 208.75390625 C112 209 112 209 111 210 C101.96993989540869 211.38924001609098 93.41601928373865 204.12534250945816 86.34765625 199.35546875 C84.00000000000003 198 84.00000000000003 198 81 198 C81.5758443235666 200.38564076906167 82.22227594701747 202.66682784105242 83 205 C83.66 205 84.32 205 85 205 C85 205.66 85 206.32 85 207 C85.66 207 86.32 207 87 207 C88.43749999999997 208.60937499999994 88.43749999999997 208.60937499999994 90 210.75 C90.515625 211.44609375 91.03125 212.1421875 91.5625 212.859375 C94.6676699186045 217.48337803096538 95.48766442864286 221.48157851497132 96.0625 227 C96.89552604738745 234.60050211831177 96.89552604738745 234.60050211831177 97.62109375 237.375 C98 239 98 239 97 241 C94.63671875 241.23046875 94.63671875 241.23046875 91.6875 241.1875 C90.7219921875 241.1810546875 89.75648437500001 241.174609375 88.76171875 241.16796875 C86.3369878840688 241.02049572703672 84.27539962884919 240.84854570482025 82 240 C82 239.34 82 238.68 82 238 C80.989375 238.495 79.97874999999999 238.99 78.9375 239.5 C74.17885104698985 241.5463155741139 69.92850440802019 241.6428348026734 65 240 C65 239.34 65 238.68 65 238 C62.124999999999886 237.75 62.124999999999886 237.75 59 238 C58.69062500000001 238.680625 58.381249999999994 239.36125 58.0625 240.0625 C57 242 57 242 53.75 242.0625 C48.447203389716066 240.56004096041954 45.52619470976285 237.56858900725626 41.75 233.6875 C40 232 40 232 38 232 C37.670000000000016 232.99 37.34 233.98 37 235 C37.59812499999998 235.103125 38.19625000000002 235.20625 38.8125 235.3125 C41.312582855222814 236.09824032592718 42.375350822136625 236.96918852767078 44 239 C44 239.66 44 240.32 44 241 C44.99000000000001 241 45.98000000000002 241 47 241 C48.1875 243.5 48.1875 243.5 49 246 C46.50000000000014 245.12500000000006 46.50000000000014 245.12500000000006 44 244 C44 243.34 44 242.68 44 242 C43.44312500000001 241.7525 42.88625000000002 241.505 42.3125 241.25 C39.100355076599214 239.5137054468104 37.231798347330084 236.809610217189 35 234 C32.539229808581354 231.0301049413913 30.66067314256418 229.79070028775956 27.0625 228.625 C22.512645536406012 227.08582990265037 20.80321209476395 224.84440515853342 18 221 C17.017090324489317 219.98319688740273 16.02665213122077 218.97261780852494 15 218 C15.989999999999995 217.34 16.980000000000004 216.68 18 216 C17.44312500000001 216.1340625 17.44312500000001 216.1340625 14.625 216.8125 C11 217 11 217 9.7890625 214.875 C6.62360743430915 203.34146075075017 10.523988783885727 192.7265935533423 14.96728515625 182.190185546875 C16.17633413831763 179.2885426686639 17 177.1780036999754 17 174 C16.340000000000003 173.67 15.680000000000007 173.34 15 173 C14.938125 173.32999999999998 14.938125 173.32999999999998 14.625 175 C14.418750000000003 175.66 14.212500000000006 176.32 14 177 C13.340000000000003 177 12.680000000000007 177 12 177 C11.4375 178.87500000000003 11.4375 178.87500000000003 11 181 C10 183 10 183 8 183 C7.524095869565315 184.67095228019286 7.054526417559032 186.34402391865407 6.62060546875 188.0263671875 C5.618849217133487 191.21212546368722 3.856035070869524 193.82615011287027 2.0625 196.625 C1.3728515625000028 197.710390625 0.6832031250000057 198.79578125 -0.02734375 199.9140625 C-0.6783203125000057 200.932421875 -1.3292968749999972 201.95078125 -2 203 C-4.146269119554006 206.4370323662788 -5.6155460125206815 209.65693558352578 -6.9765625 213.4765625 C-8.603295961802914 217.48751599742246 -10.600248999936397 221.31592064915665 -12.5751953125 225.163818359375 C-13.902502934744689 227.75839558303153 -15.076387715000791 230.2291631450024 -16 233 C-16.659999999999997 233 -17.319999999999993 233 -18 233 C-18.132773437499992 233.9268359375 -18.265546875 234.853671875 -18.40234375 235.80859375 C-18.578945312499997 237.0061328125 -18.755546874999993 238.203671875 -18.9375 239.4375 C-19.111523437499997 240.6324609375 -19.285546874999994 241.827421875 -19.46484375 243.05859375 C-20 246 -20 246 -21 247 C-21.868153444698976 252.51595519054024 -22.137383126685734 257.8625595683161 -22.09765625 263.4375 C-22.096948776245114 263.82027099609377 -22.096948776245114 263.82027099609377 -22.093368530273438 265.75732421875 C-22.087828530229302 268.17159142461287 -22.075287791712924 270.5857614362367 -22.0625 273 C-22.057477225968796 274.64973823180077 -22.0529156889595 276.2994779359492 -22.048828125 277.94921875 C-22.03787885861928 281.9661825478386 -22.02065665612858 285.9830748697663 -22 290 C-21.340000000000003 290 -20.680000000000007 290 -20 290 C-19.4088044358066 292.29088281124945 -18.927731301231887 294.61054873623306 -18.5 296.9375 C-17.2194046306505 303.89029768467475 -17.2194046306505 303.89029768467475 -15 305 C-14.340000000000003 304.01 -13.680000000000007 303.02 -13 302 C-10.463707515161687 304.5362924848383 -10.404795337856783 305.51380126458974 -11 309 C-15.06198147749933 312.93094981693486 -19.852323647016604 312.3450706384023 -25 311 C-27.81213762399797 308.18786237600204 -28.155562092074632 304.95118614430794 -29 301.1875 C-29.082499999999996 300.841064453125 -29.082499999999996 300.841064453125 -29.5 299.087890625 C-35.22261291739184 274.25264472178776 -34.64201985996644 250.2877106330631 -27 226 C-26.632617187500003 224.7689453125 -26.265234375000006 223.537890625 -25.88671875 222.26953125 C-22.966255502981795 212.97933334899147 -19.297595098155867 203.932536343182 -14.39453125 195.51171875 C-13.26156792280652 193.4711153343546 -12.216741028899591 191.4305709054337 -11.19921875 189.33203125 C-10.887104492187504 188.6899169921875 -10.574990234374994 188.047802734375 -10.25341796875 187.38623046875 C-9.632671784191388 186.1006061705801 -9.018260022849063 184.81190152123892 -8.41064453125 183.52001953125 C-6.2196854355904065 179 -6.2196854355904065 179 -4 179 C-3.773124999999993 178.34 -3.5462500000000006 177.68 -3.3125 177 C-1.6845716712534369 173.27902096286502 0.6599303084085761 170.88510435395773 3.44140625 167.96484375 C5.058245420590126 165.92657281564703 5.586985939080122 164.54031936100034 6 162 C-1.2942285980998918 163.43157757532802 -6.140270702681676 165.5315066637204 -11.8359375 170.28125 C-19.011004904651372 175.97985949105885 -26.957863404739385 177.39013457350958 -36 176 C-37.68750000000003 174.56640624999997 -37.68750000000003 174.56640624999997 -39 173 C-43.63757075519835 170.7739660375048 -48.347957067187274 169.20269048265084 -53.27734375 167.74609375 C-55 167 -55 167 -55 165 C-56.32796290504608 164.64587655865438 -57.662166065723675 164.31478445512383 -59 164 C-61.527147974292255 161.47285202570774 -61.219357403682345 161.18908859424613 -60 158 C-57.44444444444443 154 -57.44444444444443 154 -55 154 C-55 153.34 -55 152.68 -55 152 C-56.325672915114126 151.63739799914822 -57.66090704599512 151.3093847918424 -59 151 C-64.38972582723208 147.9735544012634 -70.27524827183493 143.54323067102928 -71.5625 137.25 C-70.82310362612233 134.29241450448936 -69.79921888465438 133.96223149159994 -67 133 C-70.85677749360615 127.14833759590792 -70.85677749360615 127.14833759590792 -72.75 125.1875 C-74.39994699028775 122.30009276699644 -74.03675313437498 119.88795572649923 -73.90234375 116.640625 C-74.0548629713381 112.51650525501798 -75.26932095621109 108.73508158713072 -76.44140625 104.796875 C-77.04172790807614 101.79106865606633 -76.94066215512267 99.90468203944471 -76 97 C-71.4675352066821 94.95308041592095 -65.79348559914261 96.42307231273321 -61 97 C-60.1840234375 97.0734765625 -59.368046875000005 97.146953125 -58.52734375 97.22265625 C-51.8903714190893 97.8320610550085 -43.283797898997484 99.43240420200503 -40 106 C-38.007082234575336 106.78344256488717 -35.97948177155078 107.48016365108923 -33.9375 108.125 C-32.83277343750001 108.478203125 -31.72804687499999 108.83140625 -30.58984375 109.1953125 C-29.735195312499997 109.460859375 -28.880546874999993 109.72640625 -28 110 C-29.75637402376411 102.97450390494355 -32.675481390984714 100.27891949527887 -38.421875 96.01953125 C-44.05065840788567 91.61031758048955 -50.352603790494484 85.7230736431378 -50.0625 78.25 C-49.971070903693615 74.0442615699062 -50.382725172889856 70.16660508299347 -51 66 C-51.461519364448854 56.60985600794438 -51.461519364448854 56.60985600794438 -50 54 C-46.37894310410468 52.953916896741354 -43.57168519695511 52.76364743182323 -40 54 C-39.864648437499994 52.9983984375 -39.729296875 51.996796875 -39.58984375 50.96484375 C-39.04097962707864 47.13629945496506 -38.33655790817245 43.352576286129356 -37.5625 39.5625 C-37.316289062500005 38.3262890625 -37.07007812500001 37.090078125 -36.81640625 35.81640625 C-36.546992187499995 34.8869921875 -36.27757812499999 33.957578125 -36 33 C-35.34 33 -34.68000000000001 33 -34 33 C-34 32.34 -34 31.68 -34 31 C-32.92750000000001 31 -31.85499999999999 31 -30.75 31 C-25.936876381214105 29.71650036832376 -25.774498079957624 28.347070821277548 -23.96875 24.01171875 C-22.381050705118312 20.714681907806174 -19.786514406623184 18 -16 18 C-14.59442695902743 15.961769879014302 -13.314607185329209 13.942230937248038 -12.0625 11.8125 C-11.715097656249995 11.23435546875 -11.367695312500004 10.6562109375 -11.009765625 10.060546875 C-9.432002038676117 7.430940897793539 -7.9145710786823 4.826595495753496 -6.55859375 2.07421875 C-4.441381359033414 -0.7434248079028931 -3.3820001161158473 -0.7139199012447949 0 0 Z M85 78 C86 80 86 80 86 80 Z M50 109 C49.90203124999999 109.5684765625 49.804062499999986 110.136953125 49.703125 110.72265625 C47.14098750743605 123.95300416418799 47.14098750743605 123.95300416418799 41 126 C39.4375 128.375 39.4375 128.375 38 131 C37.34 131.99 36.68000000000001 132.98 36 134 C36 134.99 36 135.98 36 137 C39.60135354775446 135.54212164915847 41.20596926682319 133.7010732482787 43.4375 130.5625 C46.002802196547776 127.12002995560042 48.106419344436176 124.94679032778191 52 123 C52.329999999999984 122.34 52.66 121.68 53 121 C55.314062196896515 120.26924351676952 57.648288693483266 119.59861742347698 60 119 C59.375 115.5 59.375 115.5 58 112 C55 111.75 55 111.75 52 112 C51.34 111.01 50.68000000000001 110.02 50 109 Z M31 139 C31 139.66 31 140.32 31 141 C31.659999999999997 141 32.31999999999999 141 33 141 C33 140.34 33 139.68 33 139 C32.34 139 31.680000000000007 139 31 139 Z M32 142 C33 144 33 144 33 144 Z M28 144 C28 145.32 28 146.64 28 148 C28.659999999999997 148 29.319999999999993 148 30 148 C29.70630173227346 146.65737934753582 29.372104203767606 145.32303716895154 29 144 C28.670000000000016 144 28.340000000000003 144 28 144 Z M25 147 C25 147.99 25 148.98 25 150 C25.659999999999997 150 26.319999999999993 150 27 150 C26.670000000000016 149.01 26.340000000000003 148.02 26 147 C25.670000000000016 147 25.340000000000003 147 25 147 Z M26 151 C26 151.66 26 152.32 26 153 C26.659999999999997 152.67 27.319999999999993 152.34 28 152 C27.340000000000003 151.67 26.680000000000007 151.34 26 151 Z " fill="currentColor" transform="translate(105,0)"/>
    </symbol>
  </defs>

  <g color="#B8924A">
    <!-- Main vine stem - long sinuous curve, seamless top-to-bottom tile -->
    <path d="M 30 0 C 55 60 5 130 32 190 C 60 250 8 320 30 380 C 55 440 4 510 32 570 C 58 630 8 690 30 720"
      stroke="currentColor" stroke-width="1.2" fill="none" stroke-linecap="round"/>

    <!-- Tendrils -->
    <path d="M 32 95 C 20 105 8 115 22 126 C 32 130 38 122 32 116" stroke="currentColor" stroke-width="0.9" fill="none" stroke-linecap="round"/>
    <path d="M 35 250 C 56 265 72 258 60 244 C 50 234 44 240 49 247" stroke="currentColor" stroke-width="0.9" fill="none" stroke-linecap="round"/>
    <path d="M 28 410 C 12 425 2 442 18 452 C 30 454 36 446 30 440" stroke="currentColor" stroke-width="0.9" fill="none" stroke-linecap="round"/>
    <path d="M 35 570 C 56 585 72 578 60 564 C 50 554 44 560 49 567" stroke="currentColor" stroke-width="0.9" fill="none" stroke-linecap="round"/>

    <!-- Leaves at irregular intervals, varied rotation/size -->
    <use href="#vp-leaf" x="40" y="40" width="32" height="32" transform="rotate(20 56 56)"/>
    <use href="#vp-leaf" x="-4" y="180" width="36" height="36" transform="rotate(-30 14 198)"/>
    <use href="#vp-leaf" x="44" y="320" width="30" height="30" transform="rotate(35 59 335)"/>
    <use href="#vp-leaf" x="-2" y="470" width="34" height="34" transform="rotate(-22 15 487)"/>
    <use href="#vp-leaf" x="42" y="600" width="32" height="32" transform="rotate(18 58 616)"/>

    <!-- Small grape cluster motifs (3 dots in triangle) -->
    <g fill="currentColor">
      <circle cx="16" cy="135" r="2.2"/>
      <circle cx="22" cy="140" r="2.2"/>
      <circle cx="19" cy="145" r="2.2"/>
    </g>
    <g fill="currentColor">
      <circle cx="74" cy="295" r="2.2"/>
      <circle cx="80" cy="300" r="2.2"/>
      <circle cx="77" cy="305" r="2.2"/>
    </g>
    <g fill="currentColor">
      <circle cx="14" cy="455" r="2.2"/>
      <circle cx="20" cy="460" r="2.2"/>
      <circle cx="17" cy="465" r="2.2"/>
    </g>
  </g>
</svg>
